<svg xmlns="http://www.w3.org/2000/svg" viewBox="0 0 520 520" role="img" aria-labelledby="title desc" data-radar="ppi">
  <title id="title">PARA11AX radar</title>
  <desc id="desc">Circular plan-position display with concentric range rings, azimuth crosshairs, target returns, and a rotating radial sweep.</desc>
  <defs>
    <radialGradient id="bg" cx="50%" cy="50%" r="52%">
      <stop offset="0" stop-color="#0A170C"/>
      <stop offset=".7" stop-color="#061008"/>
      <stop offset="1" stop-color="#020403"/>
    </radialGradient>
    <linearGradient id="trail" x1="0" y1="0" x2="1" y2="0">
      <stop offset="0" stop-color="#39FF14" stop-opacity="0"/>
      <stop offset=".68" stop-color="#39FF14" stop-opacity=".07"/>
      <stop offset="1" stop-color="#39FF14" stop-opacity=".34"/>
    </linearGradient>
    <clipPath id="scope"><circle cx="260" cy="260" r="232"/></clipPath>
  </defs>
  <style>
    .motion{display:block}.static-sweep{display:none}
    @media(prefers-reduced-motion: reduce){.motion{display:none}.static-sweep{display:block}}
  </style>

  <circle cx="260" cy="260" r="250" fill="#020403"/>
  <circle cx="260" cy="260" r="238" fill="url(#bg)" stroke="#39FF14" stroke-opacity=".72" stroke-width="2"/>
  <circle cx="260" cy="260" r="232" fill="none" stroke="#39FF14" stroke-opacity=".22"/>
  <circle cx="260" cy="260" r="184" fill="none" stroke="#39FF14" stroke-opacity=".22"/>
  <circle cx="260" cy="260" r="136" fill="none" stroke="#39FF14" stroke-opacity=".2"/>
  <circle cx="260" cy="260" r="88" fill="none" stroke="#39FF14" stroke-opacity=".18"/>
  <circle cx="260" cy="260" r="40" fill="none" stroke="#39FF14" stroke-opacity=".16"/>
  <circle cx="260" cy="260" r="224" fill="none" stroke="#39FF14" stroke-opacity=".5" stroke-width="7" stroke-dasharray="1 10.72"/>
  <g id="crosshair" stroke="#39FF14" fill="none">
    <path d="M28 260H492M260 28V492" stroke-opacity=".36"/>
    <path d="M260 18v22M260 480v22M18 260h22M480 260h22" stroke-opacity=".92" stroke-width="2"/>
    <path d="M96 96l13 13M411 411l13 13M96 424l13-13M411 109l13-13" stroke-opacity=".35"/>
  </g>

  <g clip-path="url(#scope)">
    <path d="M105 260a155 155 0 0 1 310 0" fill="none" stroke="#39FF14" stroke-opacity=".035" stroke-width="38" stroke-dasharray="4 10"/>
    <g fill="#39FF14">
      <circle cx="374" cy="143" r="4.5"/><circle cx="168" cy="340" r="4" fill-opacity=".82"/><circle cx="352" cy="352" r="3.8" fill-opacity=".72"/><circle cx="306" cy="180" r="3.1" fill-opacity=".65"/><circle cx="142" cy="214" r="2.8" fill-opacity=".65"/>
    </g>
    <g fill="#FF2438">
      <circle cx="198" cy="146" r="4.3"/><circle cx="392" cy="303" r="3.5" fill-opacity=".88"/>
    </g>

    <g class="motion" transform="translate(260 260)">
      <path d="M0 0L221-58A228 228 0 0 1 224 43Z" fill="url(#trail)"/>
      <path d="M0 0H226" stroke="#39FF14" stroke-width="2.6" stroke-linecap="round"/>
      <path d="M0 -1H226" stroke="#F7FFF6" stroke-opacity=".38" stroke-width=".8"/>
      <animateTransform attributeName="transform" additive="sum" type="rotate" from="0" to="360" dur="4.8s" repeatCount="indefinite"/>
    </g>
    <g class="static-sweep" transform="translate(260 260) rotate(34)">
      <path d="M0 0L221-58A228 228 0 0 1 224 43Z" fill="url(#trail)"/>
      <path d="M0 0H226" stroke="#39FF14" stroke-width="2.6"/>
    </g>
  </g>

  <circle cx="260" cy="260" r="8" fill="#020403" stroke="#F7FFF6" stroke-opacity=".62"/>
  <circle cx="260" cy="260" r="2.5" fill="#39FF14"/>
</svg>
